<svg width="163" height="66" viewBox="0 0 163 66" fill="none" xmlns="http://www.w3.org/2000/svg">
<path d="M101.5 33.7H99.4V31.3H95.2V40H93.1V29.5H95.2V31L96.7 29.5H99.4C99.98 29.5 100.47 29.71 100.87 30.13C101.29 30.53 101.5 31.02 101.5 31.6V33.7ZM115.289 37.9C115.289 38.48 115.079 38.98 114.659 39.4C114.259 39.8 113.769 40 113.189 40H106.889C106.309 40 105.809 39.8 105.389 39.4C104.989 38.98 104.789 38.48 104.789 37.9V31.6C104.789 31.02 104.989 30.53 105.389 30.13C105.809 29.71 106.309 29.5 106.889 29.5H113.189C113.769 29.5 114.259 29.71 114.659 30.13C115.079 30.53 115.289 31.02 115.289 31.6V37.9ZM113.189 38.2V31.3H106.889V38.2H113.189ZM126.396 40H122.196C121.616 40 121.116 39.8 120.696 39.4C120.296 38.98 120.096 38.48 120.096 37.9V31.3H117.096L118.896 29.5H120.096V27.4L122.196 25.3V29.5H126.396V31.3H122.196V38.2H126.396V40ZM139.899 40H131.499C130.919 40 130.419 39.8 129.999 39.4C129.599 38.98 129.399 38.48 129.399 37.9V31.6C129.399 31.02 129.599 30.53 129.999 30.13C130.419 29.71 130.919 29.5 131.499 29.5H137.799C138.379 29.5 138.869 29.71 139.269 30.13C139.689 30.53 139.899 31.02 139.899 31.6V33.7L137.799 35.8H131.799L133.599 34H137.799V31.3H131.499V38.2H139.899V40ZM145.298 27.7H143.198V25.3H145.298V27.7ZM145.298 40H143.198V31L145.298 28.9V40ZM159.996 40H157.896V31.3H151.596V40H149.496V29.5H151.596V31L153.096 29.5H157.896C158.476 29.5 158.966 29.71 159.366 30.13C159.786 30.53 159.996 31.02 159.996 31.6V40Z" fill="white"/>
<path d="M68.15 59H66.05V57.47L64.25 59H59.75C59.17 59 58.67 58.8 58.25 58.4C57.85 57.98 57.65 57.48 57.65 56.9V54.8C57.65 54.22 57.85 53.73 58.25 53.33C58.67 52.91 59.17 52.7 59.75 52.7H65.75L63.95 54.47H59.75V57.2H66.05V50.3H57.65L59.45 48.5H66.05C66.63 48.5 67.12 48.71 67.52 49.13C67.94 49.53 68.15 50.02 68.15 50.6V59ZM74.7383 59H72.6383V43.7L74.7383 41.6V59ZM88.2523 48.5L86.4223 50.3H81.3523V57.2H87.6523V59H81.3523C80.7723 59 80.2723 58.8 79.8523 58.4C79.4523 57.98 79.2523 57.48 79.2523 56.9V50.6C79.2523 50.02 79.4523 49.53 79.8523 49.13C80.2723 48.71 80.7723 48.5 81.3523 48.5H88.2523ZM100.856 59H98.7559V57.5L97.2559 59H92.4559C91.8759 59 91.3759 58.8 90.9559 58.4C90.5559 57.98 90.3559 57.48 90.3559 56.9V48.5H92.4559V57.2H98.7559V48.5H100.856V59ZM107.463 59H105.363V43.7L107.463 41.6V59ZM122.027 59H119.927V57.47L118.127 59H113.627C113.047 59 112.547 58.8 112.127 58.4C111.727 57.98 111.527 57.48 111.527 56.9V54.8C111.527 54.22 111.727 53.73 112.127 53.33C112.547 52.91 113.047 52.7 113.627 52.7H119.627L117.827 54.47H113.627V57.2H119.927V50.3H111.527L113.327 48.5H119.927C120.507 48.5 120.997 48.71 121.397 49.13C121.817 49.53 122.027 50.02 122.027 50.6V59ZM133.115 59H128.915C128.335 59 127.835 58.8 127.415 58.4C127.015 57.98 126.815 57.48 126.815 56.9V50.3H123.815L125.615 48.5H126.815V46.4L128.915 44.3V48.5H133.115V50.3H128.915V57.2H133.115V59ZM146.618 56.9C146.618 57.48 146.408 57.98 145.988 58.4C145.588 58.8 145.098 59 144.518 59H138.218C137.638 59 137.138 58.8 136.718 58.4C136.318 57.98 136.118 57.48 136.118 56.9V50.6C136.118 50.02 136.318 49.53 136.718 49.13C137.138 48.71 137.638 48.5 138.218 48.5H144.518C145.098 48.5 145.588 48.71 145.988 49.13C146.408 49.53 146.618 50.02 146.618 50.6V56.9ZM144.518 57.2V50.3H138.218V57.2H144.518ZM159.225 52.7H157.125V50.3H152.925V59H150.825V48.5H152.925V50L154.425 48.5H157.125C157.705 48.5 158.195 48.71 158.595 49.13C159.015 49.53 159.225 50.02 159.225 50.6V52.7Z" fill="white"/>
<path d="M94.8435 0.256185L88.9171 11.6501L84.1522 11.6838L78.8032 11.7243L87.3576 5.52167L94.7838 0.141571L94.8435 0.256185Z" fill="#C8C6C4"/>
<path d="M100 9.87304L99.3732 11.0734L98.1394 13.4081L92.1156 24.8046L91.1589 26.6183L84.7194 38.8063L74.275 38.8788L69.5377 38.9118L62.5836 38.9646L56.1903 39.0107C54.4484 41.972 52.7066 44.9332 50.9714 47.9011C46.6498 47.934 42.3216 47.967 38 48C39.4911 45.0387 40.9822 42.0775 42.4733 39.1162L48.9062 26.9349L56.5861 26.8755L62.6232 26.8228L75.9706 26.7304L80.7145 26.6908L81.6712 24.8772L87.695 13.4806L88.9222 11.1459L94.8141 0L100 9.87304Z" fill="white"/>
<path d="M94.7838 0.141582L87.3576 5.52168L78.8032 11.7243H78.7966L70.7267 11.785L56.9229 11.8861L48.6871 11.9535L48.2358 11.0231L43.0395 0.384293L53.8038 0.303389L62.9753 0.235969L76.7858 0.13484L90.2113 0.0337099L94.7108 0L94.7838 0.141582Z" fill="white"/>
<path d="M74 14L67.9462 25.4615L54.5176 25.5543L46.5719 25.614L40.704 25.6605L31.5303 25.7268L19.5156 25.813L18.5929 25.8196L24.6467 14.3582L37.5907 14.2587L40.923 14.2388L46.7644 14.1924L60.5714 14.0929L74 14Z" fill="#F9F9FA"/>
<path d="M31.5303 25.7268L30.5678 27.5508L28.7954 30.8937L22.7881 27.6039L19.5156 25.813L31.5303 25.7268Z" fill="#CCCCCB"/>
<path d="M54.9291 50.0957L49.3533 60.6418L35.9247 60.7413L22.1177 60.8408L12.944 60.9071H12.9374L0 61L5.57589 50.4539L7.27521 47.237L11.1518 39.8944L17.6238 27.6437L18.5929 25.8197L19.5156 25.813L22.7881 27.6039L28.7955 30.8937L24.0892 39.8016L20.2126 47.1375L18.5133 50.361L27.6869 50.2947L41.5005 50.1952L54.9291 50.0957Z" fill="#F9F9FA"/>
</svg>
