<svg width="66" height="40" viewBox="0 0 66 40" fill="none" xmlns="http://www.w3.org/2000/svg">
<path d="M62.6136 0.169359L58.7217 7.70095L55.5925 7.72324L52.0797 7.74997L57.6975 3.64994L62.5744 0.0935974L62.6136 0.169359Z" fill="#8C6748"/>
<path d="M66 6.52625L65.5884 7.31969L64.7781 8.86297L60.8222 16.3963L60.1939 17.5951L55.965 25.6516L49.1059 25.6996L45.9949 25.7214L41.428 25.7562L37.2294 25.7867C36.0855 27.7442 34.9416 29.7016 33.8021 31.6634C30.964 31.6852 28.1216 31.707 25.2836 31.7288C26.2628 29.7714 27.242 27.8139 28.2213 25.8565L32.4459 17.8044L37.4894 17.7652L41.454 17.7303L50.2195 17.6693L53.3349 17.6431L53.9631 16.4442L57.9191 8.91092L58.725 7.36764L62.5943 0L66 6.52625Z" fill="#BB8A5B"/>
<path d="M62.5744 0.0935879L57.6975 3.64993L52.0797 7.74996H52.0754L46.7757 7.79007L37.7105 7.85692L32.302 7.90149L32.0056 7.28648L28.5931 0.254024L35.6622 0.200545L41.6853 0.15598L50.7548 0.0891313L59.5716 0.0222828L62.5264 0L62.5744 0.0935879Z" fill="#BB8A5B"/>
<path d="M48 9L44.0732 16.5597L35.3628 16.6209L30.2088 16.6603L26.4026 16.6909L20.4521 16.7347L12.6588 16.7916L12.0603 16.7959L15.9871 9.23624L24.3832 9.17062L26.5447 9.15749L30.3337 9.12687L39.2896 9.06125L48 9Z" fill="#F9F9FA"/>
<path d="M20.4521 16.7347L19.8278 17.9378L18.6781 20.1427L14.7815 17.9728L12.6588 16.7916L20.4521 16.7347Z" fill="#CCCCCB"/>
<path d="M35.6297 32.8078L32.0129 39.7638L23.3025 39.8294L14.3466 39.895L8.39613 39.9388H8.39182L0 40L3.61679 33.044L4.71905 30.9222L7.23359 26.0793L11.4316 17.999L12.0603 16.7959L12.6588 16.7916L14.7815 17.9728L18.6782 20.1427L15.6254 26.0181L13.1109 30.8566L12.0086 32.9828L17.9591 32.939L26.9193 32.8734L35.6297 32.8078Z" fill="#F9F9FA"/>
</svg>
